<?xml version="1.0" encoding="UTF-8"?>
<svg width="1652px" height="3027px" viewBox="0 0 1652 3027" version="1.1" xmlns="http://www.w3.org/2000/svg" xmlns:xlink="http://www.w3.org/1999/xlink">
    <!-- Generator: Sketch 48.2 (47327) - http://www.bohemiancoding.com/sketch -->
    <title>WineHerWayLogo_Red-Left</title>
    <desc>Created with Sketch.</desc>
    <defs>
        <linearGradient x1="16.3727624%" y1="24.1635819%" x2="50%" y2="100%" id="linearGradient-1">
            <stop stop-color="#A658C5" offset="0%"></stop>
            <stop stop-color="#180728" offset="100%"></stop>
        </linearGradient>
    </defs>
    <g id="Page-1" stroke="none" stroke-width="1" fill="none" fill-rule="evenodd">
        <g id="WineHerWayLogo_Red-Left" transform="translate(10.000000, 14.000000)">
            <g id="Vines" stroke="#417505">
                <path d="M1249.42624,573.982827 C1238.80875,580.339703 1233.5,587.178761 1233.5,594.5 C1233.5,605.481859 1233.5,611.857183 1245.20504,621.904621 C1256.91007,631.952059 1268.64863,633.943248 1284.77621,632.397679 C1300.90379,630.852109 1321.32675,620.387082 1338.77946,591.319456 C1356.23217,562.251829 1367.72524,533.207364 1371.70013,491.123601 C1375.67503,449.039839 1368.42469,406.168877 1364.79839,380.202704 C1361.17209,354.23653 1341.32307,294.789421 1320.0276,250.055517 C1298.73212,205.321614 1280.15668,179.598006 1252.35341,152.189885 C1224.55014,124.781765 1187.33429,82.0861574 1072.79338,44.1968151" id="Line" stroke-width="23" stroke-linecap="round" stroke-linejoin="round"></path>
                <path d="M1057.16876,983.994838 C1046.09784,993.080494 1038.87492,1003.58221 1035.5,1015.5 C1030.43763,1033.37668 1034.72928,1048.95287 1038.97296,1064.48371 C1043.21663,1080.01456 1064.36611,1099.18694 1085.75124,1105.22072 C1107.13637,1111.2545 1132.66747,1111.18253 1153.17693,1105.22072 C1173.68638,1099.25892 1192.14458,1092.27449 1213.29582,1073.96384 C1227.39665,1061.75674 1241.65948,1045.01509 1256.08431,1023.73891" id="Line-2" stroke-width="22" stroke-linecap="round" stroke-linejoin="round"></path>
                <ellipse id="Oval-2" stroke-width="20" cx="1201.5" cy="969.5" rx="74.5" ry="76.5"></ellipse>
                <ellipse id="Oval-2" stroke-width="23" transform="translate(1209.500000, 930.500000) rotate(-32.000000) translate(-1209.500000, -930.500000) " cx="1209.5" cy="930.5" rx="122.5" ry="111.5"></ellipse>
                <path d="M1128.56523,1022.99823 C1149.61551,1044.53028 1190.53172,1061.5 1219.5,1061.5 C1248.46828,1061.5 1272.33066,1058.64156 1297.27753,1047.81206 C1322.2244,1036.98257 1342.035,1032.60509 1379.9896,989.64344 C1417.9442,946.681792 1425.32458,932.843537 1447.39994,880.500924 C1469.4753,828.158312 1479.87879,771.479225 1485.96983,723.567205 C1492.06088,675.655185 1492.40104,617.3123 1489.88855,578.209761 C1487.26696,537.409105 1481.5936,506.669227 1473.02534,469.236949 C1466.58757,441.112211 1440.77265,359.600623 1420.27699,320.431899" id="Line-3" stroke-width="20" stroke-linecap="round" stroke-linejoin="round"></path>
                <path d="M761.5,1092.5 C755.758322,1071.43928 753.690669,1055.6882 755.297043,1045.24677 C756.903417,1034.80534 763.637736,1020.22309 775.5,1001.5 C807.441417,989.081455 839.054068,982.872183 870.337953,982.872183 C885.018923,982.872183 1011.2063,973.145149 1053.58908,960.73328 C1121.49999,940.84546 1177.19706,896.897691 1224.4038,841.947922 C1271.61054,786.998152 1295.73098,734.680658 1314.25135,659.595882 C1332.77172,584.511106 1328.44939,520.743882 1311.87438,441.779052 C1295.29937,362.814221 1274.39007,314.940578 1202.56129,238.295244 C1130.73252,161.64991 1036.40138,133.38953 977.200435,116.178716 C917.999487,98.9679015 860.183907,91.2804071 813.38334,91.2804071" id="Line-4" stroke-width="26" stroke-linecap="round" stroke-linejoin="round"></path>
                <path d="M806.002403,91.6122453 C710.532859,91.6122453 582.225769,105.022799 432.198463,217.669711 C259.006892,347.709343 179.268583,555.161394 174.328678,700.894356 C169.345898,847.892173 216.422728,1072.91497 385.941643,1231.60527 C500.192938,1338.55836 709.172621,1408.57575 775.867893,1396.18538" id="Path" stroke-width="40" stroke-linecap="round" stroke-linejoin="round"></path>
                <path d="M447.919191,916.08056 C531.290712,940.050584 548.253355,839.541899 515.5,794.5 C482.746645,749.458101 388.035864,766.546765 366.391517,829.415911 C344.74717,892.285057 360.052049,926.910401 386.981153,960.131834 C414.448398,994.01715 469.74944,1003.89856 498.784355,999.520372 C550.699423,991.692071 569.990773,966.264501 608.402256,885.05004 C632.954141,833.13931 496.666917,719.891145 476.250627,711.658247 C419.798394,688.893804 354.05367,709.732725 326.930894,728.129471 C299.808118,746.526218 271.926115,788.606532 253.708124,870.617946 C235.490134,952.62936 254.596013,1023.53458 289.894876,1100.21427" id="Line-5" stroke-width="23" stroke-linecap="round" stroke-linejoin="round"></path>
                <path d="M77.5,965.5 C70.8690554,888.214431 82.3093886,742.75566 99.5,708.5 C116.690611,674.24434 142.265962,610.085668 222.27751,610.085668 C302.289057,610.085668 322.698222,689.507889 314.757191,724.522242" id="Line-8" stroke-width="23" stroke-linecap="round" stroke-linejoin="round"></path>
                <path d="M232.5,728.5 C253.413616,711.580861 236.300286,682.086948 205.5,687.5 C174.699714,692.913052 139.881867,711.604672 134.551137,745.7142 C129.220407,779.823728 179.616788,815.88875 225.679533,804.001014 C271.742278,792.113278 274.858568,781.608278 295.30345,755.054139 C308.933371,737.35138 306.990775,720.129937 289.475661,703.389812" id="Line-7" stroke-width="20" stroke-linecap="round"></path>
                <path d="M1588.47692,524.235268 C1610.28644,593.118919 1621.1912,653.314871 1621.1912,704.823121 C1621.1912,782.085498 1604.28878,921.038659 1566.87067,1014.55712 C1529.45256,1108.07558 1446.00841,1234.68366 1410.5,1276.5 C1374.99159,1318.31634 1151.45536,1573.56177 783.970619,1561.83364 C382.817552,1549.03099 156.157121,1187.00334 104.107316,1077.29435 C51.8651341,967.179881 -42.3959261,599.089537 211.597901,301.318931 C341.769812,148.711408 525.317487,7.38784471 820.59151,7.38784471" id="Line-6" stroke-width="40" stroke-linecap="round" stroke-linejoin="round"></path>
                <path d="M509.341179,254.606874 C544.180793,235.449127 568.733491,225.453734 582.999275,224.620695 C604.397951,223.371138 640.978384,237.344336 671.521567,230.982516 C702.064749,224.620695 728.749302,178.008449 759.790674,164.321502 C790.832046,150.634555 790.568627,170.816819 812.922462,170.816819 C823.324011,170.816819 838.945416,150.130815 883.427268,170.816819 C912.925491,184.534782 929.29834,229.587573 946.925785,236.842572 C964.55323,244.097571 1008.95123,207.870123 1082.8487,246.385302" id="Line-9" stroke-width="25" stroke-linecap="square"></path>
                <path d="M575.210418,328.195919 C624.932757,273.770422 657.695951,244.871782 673.5,241.5 C697.206073,236.442327 721.836109,236.755108 756.42563,261.166638 C779.485311,277.440991 807.043993,282.809587 839.101675,277.272428 C880.663109,252.542935 913.80718,242.718302 938.53389,247.798529 C963.2606,252.878756 963.2606,270.903914 938.53389,301.874002" id="Line-10" stroke-width="27" stroke-linecap="square"></path>
                <path d="M713.987408,222.06584 C759.049536,137.861485 795.153028,192.15339 797.791273,196.374581 C801.667046,202.575819 805.74254,222.910321 810.017752,257.378086 C811.587622,224.418765 814.594372,204.084263 819.038004,196.374581 C825.70345,184.810058 884.927958,147.827723 924.088599,222.06584" id="Line-11" stroke-width="25" stroke-linecap="square"></path>
                <path d="M770.108277,22.5 C786.859038,28.8835775 795.630637,37.6646402 796.423076,48.843188 C797.215514,60.0217358 788.443914,76.7165941 770.108277,98.9277627 C788.816705,101.911065 799.603496,111.540798 802.468649,127.816961 C804.141651,137.320829 784.268535,155.56639 776.97009,158.061948 C765.206024,162.084435 787.519897,178.57201 793.120889,186.869686 C804.12921,203.178132 809.496039,205.178716 809.221374,192.871437 C821.495658,191.042351 828.03092,187.722422 828.82716,182.91165 C829.665574,177.846071 862.531895,167.463229 846.390982,158.061948 C839.679288,154.15272 819.805633,136.195786 822.801972,127.816961 C829.195388,109.9387 842.438696,98.2203846 862.531895,92.662014 C840.062072,78.3380346 828.82716,65.3163981 828.82716,53.5971046 C828.82716,41.8778112 837.029002,31.5121096 853.432685,22.5 L832.827318,0.773921841 L770.108277,22.5 Z" id="Line-12" stroke-width="22" fill="#417505" stroke-linecap="square"></path>
                <path d="M828.300718,4.35532082 C1078.70059,16.2170972 1195.95314,69.9367613 1293.16493,153.046967 C1487.65136,319.321107 1531.97253,582.981785 1533.74698,682.208995 C1535.47949,779.090612 1500.70335,1002.7737 1321.27866,1178.4251 C1225.07995,1272.60077 1131.28494,1350.40361 906.200789,1387.22763" id="Line-13" stroke-width="35" stroke-linecap="round"></path>
                <path d="M1303.5,192.5 L1267.5,155.5" id="Line-14" stroke-width="11" stroke-linecap="square"></path>
                <path d="M1506.5,645.5 L1496.5,539.5" id="Line-15" stroke-width="16" stroke-linecap="square"></path>
                <path d="M1134.84378,57.9150096 C1343.54388,129.894903 1433.56313,215.973261 1504.39013,329.408335 C1622.05553,517.858831 1605.60698,731.053076 1586.99044,831.798433 C1567.61254,936.664034 1517.78071,1093.99889 1358.36821,1243.25119 C1259.38929,1335.92166 1121.4886,1423.5 882.5,1423.5" id="Line-16" stroke-width="29" stroke-linecap="round" stroke-linejoin="round"></path>
                <path d="M1596.74824,535.499508 C1596.74824,535.499508 1591.92681,517.027856 1587.51426,505.1334 C1584.89067,498.061254 1577.80654,482.85199 1566.26187,459.505608" id="Path" stroke-width="29" stroke-linecap="round" stroke-linejoin="round"></path>
                <path d="M1284,1307.63652 C1349.96723,1271.05531 1404.72164,1228.57837 1448.26323,1180.20569 C1491.80482,1131.83302 1526.86869,1071.96077 1553.45485,1000.58894" id="Line-17" stroke-width="27" stroke-linecap="square"></path>
                <path d="M46,928 L46,2926" id="Line-18" stroke-width="20" stroke-linecap="square"></path>
                <path d="M107,1115 L107,2583.40002" id="Line-18" stroke-width="20" stroke-linecap="square"></path>
                <path d="M106.949426,2593.47045 C106.949426,2623.83345 13.885796,2722.14538 14.6504954,2759.03945 C15.4151948,2795.93352 75.0929666,2781.60413 75.0929666,2812.12439 C75.0929666,2842.64466 21.1599457,2859.86173 21.1599457,2895.3131 C21.1599457,2930.76447 58.3850738,2932.33996 68.8903429,2944.49752 C79.3956119,2956.65509 79.3255455,2962.02629 78.1159756,2971.43317 C76.9064058,2980.84004 68.6310054,2991.964 62.5434582,2995.94185 C56.4559109,2999.91969 52.7966418,3001.54903 40.6523042,3002.37914 C28.5079665,3003.20924 23.2490209,3000.83532 17.2733527,2997.31087 C11.2976845,2993.78641 1.17958754,2983.99491 0.740388417,2975.05461 C0.301189297,2966.1143 4.2092383,2959.64437 13.7682916,2956.65509 C20.1409938,2954.66224 26.7613407,2957.3671 33.6293323,2964.76967" id="Line-19" stroke-width="20" stroke-linecap="round" stroke-linejoin="round"></path>
            </g>
            <g id="Grapes" transform="translate(281.000000, 199.000000)" fill="url(#linearGradient-1)" fill-opacity="0.975203804">
                <ellipse id="Oval" cx="518" cy="132" rx="88" ry="90"></ellipse>
                <ellipse id="Oval" cx="860.5" cy="418.5" rx="77.5" ry="78.5"></ellipse>
                <ellipse id="Oval" cx="720.5" cy="367.5" rx="77.5" ry="78.5"></ellipse>
                <ellipse id="Oval" cx="590" cy="290" rx="96" ry="88"></ellipse>
                <ellipse id="Oval" cx="334" cy="631" rx="96" ry="88"></ellipse>
                <ellipse id="Oval" cx="406" cy="506" rx="96" ry="88"></ellipse>
                <ellipse id="Oval" cx="573.5" cy="439.5" rx="89.5" ry="81.5"></ellipse>
                <ellipse id="Oval" transform="translate(208.500000, 348.500000) rotate(-42.000000) translate(-208.500000, -348.500000) " cx="208.5" cy="348.5" rx="95.5" ry="78.5"></ellipse>
                <ellipse id="Oval" transform="translate(715.500000, 551.000000) rotate(-55.000000) translate(-715.500000, -551.000000) " cx="715.5" cy="551" rx="117.5" ry="100"></ellipse>
                <ellipse id="Oval" transform="translate(699.810436, 171.608009) scale(-1, 1) rotate(-55.000000) translate(-699.810436, -171.608009) " cx="699.810436" cy="171.608009" rx="110" ry="100"></ellipse>
                <ellipse id="Oval" transform="translate(401.310436, 676.608009) rotate(-55.000000) translate(-401.310436, -676.608009) " cx="401.310436" cy="676.608009" rx="117.5" ry="100"></ellipse>
                <ellipse id="Oval" transform="translate(537.500000, 1258.000000) scale(-1, 1) translate(-537.500000, -1258.000000) " cx="537.5" cy="1258" rx="83.5" ry="102"></ellipse>
                <ellipse id="Oval" transform="translate(646.000000, 909.500000) scale(-1, 1) translate(-646.000000, -909.500000) " cx="646" cy="909.5" rx="95" ry="96.5"></ellipse>
                <ellipse id="Oval" transform="translate(312.000000, 346.500000) scale(-1, 1) translate(-312.000000, -346.500000) " cx="312" cy="346.5" rx="95" ry="96.5"></ellipse>
                <ellipse id="Oval" cx="489.5" cy="1091.5" rx="83.5" ry="72.5"></ellipse>
                <ellipse id="Oval" cx="563.5" cy="1048.5" rx="83.5" ry="72.5"></ellipse>
                <ellipse id="Oval" cx="439" cy="968.5" rx="90" ry="78.5"></ellipse>
                <ellipse id="Oval" transform="translate(356.500000, 824.500000) rotate(-23.000000) translate(-356.500000, -824.500000) " cx="356.5" cy="824.5" rx="116.5" ry="83.5"></ellipse>
                <ellipse id="Oval" cx="691" cy="692.5" rx="93" ry="83.5"></ellipse>
                <ellipse id="Oval" cx="404" cy="263.5" rx="93" ry="83.5"></ellipse>
                <ellipse id="Oval" cx="527" cy="719" rx="87" ry="79"></ellipse>
                <ellipse id="Oval" cx="557" cy="946.5" rx="90" ry="78.5"></ellipse>
                <ellipse id="Oval" transform="translate(932.000000, 204.500000) scale(-1, -1) rotate(90.000000) translate(-932.000000, -204.500000) " cx="932" cy="204.5" rx="90" ry="78.5"></ellipse>
                <ellipse id="Oval" cx="596" cy="830.5" rx="85" ry="78.5"></ellipse>
                <ellipse id="Oval" cx="563.5" cy="1168.5" rx="83.5" ry="72.5"></ellipse>
                <ellipse id="Oval" cx="90.5" cy="238" rx="90.5" ry="95"></ellipse>
                <ellipse id="Oval" transform="translate(226.500000, 155.500000) rotate(36.000000) translate(-226.500000, -155.500000) " cx="226.5" cy="155.5" rx="126.5" ry="99.5"></ellipse>
                <ellipse id="Oval" cx="353" cy="184" rx="99" ry="95"></ellipse>
                <ellipse id="Oval" cx="272" cy="495" rx="99" ry="95"></ellipse>
                <ellipse id="Oval" cx="465" cy="418" rx="99" ry="95"></ellipse>
                <ellipse id="Oval" cx="846" cy="254" rx="99" ry="95"></ellipse>
                <ellipse id="Oval" cx="802" cy="120" rx="99" ry="95"></ellipse>
                <ellipse id="Oval" cx="512" cy="574" rx="99" ry="95"></ellipse>
            </g>
        </g>
    </g>
</svg>