<?xml version="1.0" encoding="UTF-8"?>
<svg width="1619px" height="1597px" viewBox="0 0 1619 1597" version="1.1" xmlns="http://www.w3.org/2000/svg" xmlns:xlink="http://www.w3.org/1999/xlink">
    <!-- Generator: Sketch 48.2 (47327) - http://www.bohemiancoding.com/sketch -->
    <title>WineHerWayLogo_Red</title>
    <desc>Created with Sketch.</desc>
    <defs>
        <linearGradient x1="16.3727624%" y1="24.1635819%" x2="50%" y2="100%" id="linearGradient-1">
            <stop stop-color="#A658C5" offset="0%"></stop>
            <stop stop-color="#180728" offset="100%"></stop>
        </linearGradient>
    </defs>
    <g id="Page-1" stroke="none" stroke-width="1" fill="none" fill-rule="evenodd">
        <g id="WineHerWayLogo_Red" transform="translate(19.000000, 14.000000)">
            <g id="Vines" stroke="#417505">
                <path d="M1207.42624,573.982827 C1196.80875,580.339703 1191.5,587.178761 1191.5,594.5 C1191.5,605.481859 1191.5,611.857183 1203.20504,621.904621 C1214.91007,631.952059 1226.64863,633.943248 1242.77621,632.397679 C1258.90379,630.852109 1279.32675,620.387082 1296.77946,591.319456 C1314.23217,562.251829 1325.72524,533.207364 1329.70013,491.123601 C1333.67503,449.039839 1326.42469,406.168877 1322.79839,380.202704 C1319.17209,354.23653 1299.32307,294.789421 1278.0276,250.055517 C1256.73212,205.321614 1238.15668,179.598006 1210.35341,152.189885 C1182.55014,124.781765 1145.33429,82.0861574 1030.79338,44.1968151" id="Line" stroke-width="23" stroke-linecap="round" stroke-linejoin="round"></path>
                <path d="M1015.16876,983.994838 C1004.09784,993.080494 996.874915,1003.58221 993.5,1015.5 C988.437627,1033.37668 992.729284,1048.95287 996.972958,1064.48371 C1001.21663,1080.01456 1022.36611,1099.18694 1043.75124,1105.22072 C1065.13637,1111.2545 1090.66747,1111.18253 1111.17693,1105.22072 C1131.68638,1099.25892 1150.14458,1092.27449 1171.29582,1073.96384 C1185.39665,1061.75674 1199.65948,1045.01509 1214.08431,1023.73891" id="Line-2" stroke-width="22" stroke-linecap="round" stroke-linejoin="round"></path>
                <ellipse id="Oval-2" stroke-width="20" cx="1159.5" cy="969.5" rx="74.5" ry="76.5"></ellipse>
                <ellipse id="Oval-2" stroke-width="23" transform="translate(1167.500000, 930.500000) rotate(-32.000000) translate(-1167.500000, -930.500000) " cx="1167.5" cy="930.5" rx="122.5" ry="111.5"></ellipse>
                <path d="M1086.56523,1022.99823 C1107.61551,1044.53028 1148.53172,1061.5 1177.5,1061.5 C1206.46828,1061.5 1230.33066,1058.64156 1255.27753,1047.81206 C1280.2244,1036.98257 1300.035,1032.60509 1337.9896,989.64344 C1375.9442,946.681792 1383.32458,932.843537 1405.39994,880.500924 C1427.4753,828.158312 1437.87879,771.479225 1443.96983,723.567205 C1450.06088,675.655185 1450.40104,617.3123 1447.88855,578.209761 C1445.26696,537.409105 1439.5936,506.669227 1431.02534,469.236949 C1424.58757,441.112211 1398.77265,359.600623 1378.27699,320.431899" id="Line-3" stroke-width="20" stroke-linecap="round" stroke-linejoin="round"></path>
                <path d="M719.5,1092.5 C713.758322,1071.43928 711.690669,1055.6882 713.297043,1045.24677 C714.903417,1034.80534 721.637736,1020.22309 733.5,1001.5 C765.441417,989.081455 797.054068,982.872183 828.337953,982.872183 C843.018923,982.872183 969.206297,973.145149 1011.58908,960.73328 C1079.49999,940.84546 1135.19706,896.897691 1182.4038,841.947922 C1229.61054,786.998152 1253.73098,734.680658 1272.25135,659.595882 C1290.77172,584.511106 1286.44939,520.743882 1269.87438,441.779052 C1253.29937,362.814221 1232.39007,314.940578 1160.56129,238.295244 C1088.73252,161.64991 994.401383,133.38953 935.200435,116.178716 C875.999487,98.9679015 818.183907,91.2804071 771.38334,91.2804071" id="Line-4" stroke-width="26" stroke-linecap="round" stroke-linejoin="round"></path>
                <path d="M764.002403,91.6122453 C668.532859,91.6122453 540.225769,105.022799 390.198463,217.669711 C217.006892,347.709343 137.268583,555.161394 132.328678,700.894356 C127.345898,847.892173 174.422728,1072.91497 343.941643,1231.60527 C458.192938,1338.55836 667.172621,1408.57575 733.867893,1396.18538" id="Path" stroke-width="40" stroke-linecap="round" stroke-linejoin="round"></path>
                <path d="M405.919191,916.08056 C489.290712,940.050584 506.253355,839.541899 473.5,794.5 C440.746645,749.458101 346.035864,766.546765 324.391517,829.415911 C302.74717,892.285057 318.052049,926.910401 344.981153,960.131834 C372.448398,994.01715 427.74944,1003.89856 456.784355,999.520372 C508.699423,991.692071 527.990773,966.264501 566.402256,885.05004 C590.954141,833.13931 454.666917,719.891145 434.250627,711.658247 C377.798394,688.893804 312.05367,709.732725 284.930894,728.129471 C257.808118,746.526218 229.926115,788.606532 211.708124,870.617946 C193.490134,952.62936 212.596013,1023.53458 247.894876,1100.21427" id="Line-5" stroke-width="23" stroke-linecap="round" stroke-linejoin="round"></path>
                <path d="M35.5,965.5 C28.8690554,888.214431 40.3093886,742.75566 57.5,708.5 C74.6906114,674.24434 100.265962,610.085668 180.27751,610.085668 C260.289057,610.085668 280.698222,689.507889 272.757191,724.522242" id="Line-8" stroke-width="23" stroke-linecap="round" stroke-linejoin="round"></path>
                <path d="M190.5,728.5 C211.413616,711.580861 194.300286,682.086948 163.5,687.5 C132.699714,692.913052 97.8818669,711.604672 92.551137,745.7142 C87.2204071,779.823728 137.616788,815.88875 183.679533,804.001014 C229.742278,792.113278 232.858568,781.608278 253.30345,755.054139 C266.933371,737.35138 264.990775,720.129937 247.475661,703.389812" id="Line-7" stroke-width="20" stroke-linecap="round"></path>
                <path d="M1546.47692,524.235268 C1568.28644,593.118919 1579.1912,653.314871 1579.1912,704.823121 C1579.1912,782.085498 1562.28878,921.038659 1524.87067,1014.55712 C1487.45256,1108.07558 1404.00841,1234.68366 1368.5,1276.5 C1332.99159,1318.31634 1109.45536,1573.56177 741.970619,1561.83364 C340.817552,1549.03099 114.157121,1187.00334 62.1073159,1077.29435 C9.86513413,967.179881 -84.3959261,599.089537 169.597901,301.318931 C299.769812,148.711408 483.317487,7.38784471 778.59151,7.38784471" id="Line-6" stroke-width="40" stroke-linecap="round" stroke-linejoin="round"></path>
                <path d="M467.341179,254.606874 C502.180793,235.449127 526.733491,225.453734 540.999275,224.620695 C562.397951,223.371138 598.978384,237.344336 629.521567,230.982516 C660.064749,224.620695 686.749302,178.008449 717.790674,164.321502 C748.832046,150.634555 748.568627,170.816819 770.922462,170.816819 C781.324011,170.816819 796.945416,150.130815 841.427268,170.816819 C870.925491,184.534782 887.29834,229.587573 904.925785,236.842572 C922.55323,244.097571 966.951232,207.870123 1040.8487,246.385302" id="Line-9" stroke-width="25" stroke-linecap="square"></path>
                <path d="M533.210418,328.195919 C582.932757,273.770422 615.695951,244.871782 631.5,241.5 C655.206073,236.442327 679.836109,236.755108 714.42563,261.166638 C737.485311,277.440991 765.043993,282.809587 797.101675,277.272428 C838.663109,252.542935 871.80718,242.718302 896.53389,247.798529 C921.2606,252.878756 921.2606,270.903914 896.53389,301.874002" id="Line-10" stroke-width="27" stroke-linecap="square"></path>
                <path d="M671.987408,222.06584 C717.049536,137.861485 753.153028,192.15339 755.791273,196.374581 C759.667046,202.575819 763.74254,222.910321 768.017752,257.378086 C769.587622,224.418765 772.594372,204.084263 777.038004,196.374581 C783.70345,184.810058 842.927958,147.827723 882.088599,222.06584" id="Line-11" stroke-width="25" stroke-linecap="square"></path>
                <path d="M728.108277,22.5 C744.859038,28.8835775 753.630637,37.6646402 754.423076,48.843188 C755.215514,60.0217358 746.443914,76.7165941 728.108277,98.9277627 C746.816705,101.911065 757.603496,111.540798 760.468649,127.816961 C762.141651,137.320829 742.268535,155.56639 734.97009,158.061948 C723.206024,162.084435 745.519897,178.57201 751.120889,186.869686 C762.12921,203.178132 767.496039,205.178716 767.221374,192.871437 C779.495658,191.042351 786.03092,187.722422 786.82716,182.91165 C787.665574,177.846071 820.531895,167.463229 804.390982,158.061948 C797.679288,154.15272 777.805633,136.195786 780.801972,127.816961 C787.195388,109.9387 800.438696,98.2203846 820.531895,92.662014 C798.062072,78.3380346 786.82716,65.3163981 786.82716,53.5971046 C786.82716,41.8778112 795.029002,31.5121096 811.432685,22.5 L790.827318,0.773921841 L728.108277,22.5 Z" id="Line-12" stroke-width="22" fill="#417505" stroke-linecap="square"></path>
                <path d="M786.300718,4.35532082 C1036.70059,16.2170972 1153.95314,69.9367613 1251.16493,153.046967 C1445.65136,319.321107 1489.97253,582.981785 1491.74698,682.208995 C1493.47949,779.090612 1458.70335,1002.7737 1279.27866,1178.4251 C1183.07995,1272.60077 1089.28494,1350.40361 864.200789,1387.22763" id="Line-13" stroke-width="35" stroke-linecap="round"></path>
                <path d="M1261.5,192.5 L1225.5,155.5" id="Line-14" stroke-width="11" stroke-linecap="square"></path>
                <path d="M1464.5,645.5 L1454.5,539.5" id="Line-15" stroke-width="16" stroke-linecap="square"></path>
                <path d="M1092.84378,57.9150096 C1301.54388,129.894903 1391.56313,215.973261 1462.39013,329.408335 C1580.05553,517.858831 1563.60698,731.053076 1544.99044,831.798433 C1525.61254,936.664034 1475.78071,1093.99889 1316.36821,1243.25119 C1217.38929,1335.92166 1079.4886,1423.5 840.5,1423.5" id="Line-16" stroke-width="29" stroke-linecap="round" stroke-linejoin="round"></path>
                <path d="M1554.74824,535.499508 C1554.74824,535.499508 1549.92681,517.027856 1545.51426,505.1334 C1542.89067,498.061254 1535.80654,482.85199 1524.26187,459.505608" id="Path" stroke-width="29" stroke-linecap="round" stroke-linejoin="round"></path>
                <path d="M1242,1307.63652 C1307.96723,1271.05531 1362.72164,1228.57837 1406.26323,1180.20569 C1449.80482,1131.83302 1484.86869,1071.96077 1511.45485,1000.58894" id="Line-17" stroke-width="27" stroke-linecap="square"></path>
            </g>
            <g id="Grapes" transform="translate(239.000000, 199.000000)" fill="url(#linearGradient-1)" fill-opacity="0.975203804">
                <ellipse id="Oval" cx="518" cy="132" rx="88" ry="90"></ellipse>
                <ellipse id="Oval" cx="860.5" cy="418.5" rx="77.5" ry="78.5"></ellipse>
                <ellipse id="Oval" cx="720.5" cy="367.5" rx="77.5" ry="78.5"></ellipse>
                <ellipse id="Oval" cx="590" cy="290" rx="96" ry="88"></ellipse>
                <ellipse id="Oval" cx="334" cy="631" rx="96" ry="88"></ellipse>
                <ellipse id="Oval" cx="406" cy="506" rx="96" ry="88"></ellipse>
                <ellipse id="Oval" cx="573.5" cy="439.5" rx="89.5" ry="81.5"></ellipse>
                <ellipse id="Oval" transform="translate(208.500000, 348.500000) rotate(-42.000000) translate(-208.500000, -348.500000) " cx="208.5" cy="348.5" rx="95.5" ry="78.5"></ellipse>
                <ellipse id="Oval" transform="translate(715.500000, 551.000000) rotate(-55.000000) translate(-715.500000, -551.000000) " cx="715.5" cy="551" rx="117.5" ry="100"></ellipse>
                <ellipse id="Oval" transform="translate(699.810436, 171.608009) scale(-1, 1) rotate(-55.000000) translate(-699.810436, -171.608009) " cx="699.810436" cy="171.608009" rx="110" ry="100"></ellipse>
                <ellipse id="Oval" transform="translate(401.310436, 676.608009) rotate(-55.000000) translate(-401.310436, -676.608009) " cx="401.310436" cy="676.608009" rx="117.5" ry="100"></ellipse>
                <ellipse id="Oval" transform="translate(537.500000, 1258.000000) scale(-1, 1) translate(-537.500000, -1258.000000) " cx="537.5" cy="1258" rx="83.5" ry="102"></ellipse>
                <ellipse id="Oval" transform="translate(646.000000, 909.500000) scale(-1, 1) translate(-646.000000, -909.500000) " cx="646" cy="909.5" rx="95" ry="96.5"></ellipse>
                <ellipse id="Oval" transform="translate(312.000000, 346.500000) scale(-1, 1) translate(-312.000000, -346.500000) " cx="312" cy="346.5" rx="95" ry="96.5"></ellipse>
                <ellipse id="Oval" cx="489.5" cy="1091.5" rx="83.5" ry="72.5"></ellipse>
                <ellipse id="Oval" cx="563.5" cy="1048.5" rx="83.5" ry="72.5"></ellipse>
                <ellipse id="Oval" cx="439" cy="968.5" rx="90" ry="78.5"></ellipse>
                <ellipse id="Oval" transform="translate(356.500000, 824.500000) rotate(-23.000000) translate(-356.500000, -824.500000) " cx="356.5" cy="824.5" rx="116.5" ry="83.5"></ellipse>
                <ellipse id="Oval" cx="691" cy="692.5" rx="93" ry="83.5"></ellipse>
                <ellipse id="Oval" cx="404" cy="263.5" rx="93" ry="83.5"></ellipse>
                <ellipse id="Oval" cx="527" cy="719" rx="87" ry="79"></ellipse>
                <ellipse id="Oval" cx="557" cy="946.5" rx="90" ry="78.5"></ellipse>
                <ellipse id="Oval" transform="translate(932.000000, 204.500000) scale(-1, -1) rotate(90.000000) translate(-932.000000, -204.500000) " cx="932" cy="204.5" rx="90" ry="78.5"></ellipse>
                <ellipse id="Oval" cx="596" cy="830.5" rx="85" ry="78.5"></ellipse>
                <ellipse id="Oval" cx="563.5" cy="1168.5" rx="83.5" ry="72.5"></ellipse>
                <ellipse id="Oval" cx="90.5" cy="238" rx="90.5" ry="95"></ellipse>
                <ellipse id="Oval" transform="translate(226.500000, 155.500000) rotate(36.000000) translate(-226.500000, -155.500000) " cx="226.5" cy="155.5" rx="126.5" ry="99.5"></ellipse>
                <ellipse id="Oval" cx="353" cy="184" rx="99" ry="95"></ellipse>
                <ellipse id="Oval" cx="272" cy="495" rx="99" ry="95"></ellipse>
                <ellipse id="Oval" cx="465" cy="418" rx="99" ry="95"></ellipse>
                <ellipse id="Oval" cx="846" cy="254" rx="99" ry="95"></ellipse>
                <ellipse id="Oval" cx="802" cy="120" rx="99" ry="95"></ellipse>
                <ellipse id="Oval" cx="512" cy="574" rx="99" ry="95"></ellipse>
            </g>
        </g>
    </g>
</svg>